<?xml version="1.0" encoding="UTF-8" standalone="no"?>
<!-- Created with Inkscape (http://www.inkscape.org/) -->
<svg xmlns:inkscape="http://www.inkscape.org/namespaces/inkscape" xmlns:rdf="http://www.w3.org/1999/02/22-rdf-syntax-ns#" xmlns="http://www.w3.org/2000/svg" xmlns:cc="http://creativecommons.org/ns#" xmlns:dc="http://purl.org/dc/elements/1.1/" xmlns:sodipodi="http://sodipodi.sourceforge.net/DTD/sodipodi-0.dtd" xmlns:svg="http://www.w3.org/2000/svg" xmlns:ns1="http://sozi.baierouge.fr" xmlns:xlink="http://www.w3.org/1999/xlink" id="svg2995" sodipodi:docname="trainingsymbol.svg" viewBox="0 0 120 120" version="1.1" inkscape:version="0.48.3.1 r9886">
  <sodipodi:namedview id="namedview2997" bordercolor="#666666" inkscape:pageshadow="2" guidetolerance="10" pagecolor="#ffffff" gridtolerance="10" inkscape:window-maximized="1" inkscape:zoom="2.5" objecttolerance="10" borderopacity="1" inkscape:current-layer="layer1" inkscape:cx="78.61902" inkscape:cy="39.679991" inkscape:window-y="-8" inkscape:window-x="-8" inkscape:window-width="1280" showgrid="false" inkscape:pageopacity="0" inkscape:window-height="972"/>
  <g id="layer1" inkscape:label="svg" inkscape:groupmode="layer" transform="translate(0,15)">
    <g id="g3948" inkscape:export-ydpi="211.90636" inkscape:export-xdpi="211.90636" inkscape:export-filename="X:\graphics\BMS_training.png" transform="translate(-122.06 -6.875)">
      <path id="rect3006-8" sodipodi:nodetypes="ccccc" style="stroke-width:0;fill:#ffffff" inkscape:connector-curvature="0" d="m126.06-1.125v106h112v-106z"/>
      <path id="rect3006" style="stroke-width:0;fill:#0000ff" d="m126.06 13.875v106h112v-106h-112zm11.5 10.875h89v84.25h-89v-84.25z" inkscape:export-ydpi="211.90636" inkscape:export-filename="X:\graphics\BMS_training.png" inkscape:connector-curvature="0" transform="translate(0,-15)" inkscape:export-xdpi="211.90636"/>
      <path id="path3815" d="m142.32 61.375c0-21.448-0.67475-21.542 16.158-21.29 2.5137 0.03775 4.2865 0.28922 7.1544-0.23234 6.8644-2.0906 15.417-5.4401 15.417-2.8824 0 3.3959-6.9132 5.3499-15.654 8.6055l-8.2964 0.04422-0.33446 3.5223c-0.18395 1.9372-0.95075 4.2016-1.7041 5.0318-2.1478 2.3671-2.6899 6.307-1.2464 9.0573 1.2416 2.3654 1.1355 2.5761-1.774 3.5223-2.316 0.75319-3.7355 2.3346-5.6425 6.2862-1.4013 2.9039-2.892 5.2814-3.3122 5.2834-0.42043 0.002-0.76451-7.6249-0.76451-16.949zm43.388-13.814c-1.0156-1.0027-1.6016-3.3668-1.6016-6.4605v-4.8791l8.6614-5.3642c4.7637-2.9503 8.6621-5.7089 8.663-6.1302 0.00092-0.4213-3.6572 1.0505-8.1292 3.2707s-8.3704 4.0367-8.6631 4.0367c-0.9988 0-0.53545-15.222 0.52284-17.174 0.97673-1.802 2.286-1.9466 17.632-1.9466 11.534 0 16.949 0.36736 17.8 1.2076 0.8467 0.83606 1.223 6.0382 1.223 16.907s-0.37632 16.071-1.223 16.907c-0.84757 0.8369-6.1442 1.2076-17.253 1.2076-13.214 0-16.312-0.27782-17.632-1.5814zm-39.09-11.055c-4.3801-3.0294-2.0633-10.51 3.2551-10.51 5.2538 0 7.7128 7.5446 3.4256 10.51-1.2459 0.86164-2.749 1.5666-3.3403 1.5666-0.59133 0-2.0946-0.70497-3.3404-1.5666z" sodipodi:nodetypes="sscsccssssscssscscssssssssssssss" style="fill:#000000" inkscape:connector-curvature="0"/>
      <path id="path3815-7" d="m162 53.634c-3.507 0-6.3438 2.8367-6.3438 6.3438 0 3.507 2.8367 6.375 6.3438 6.375 3.507 0 6.3438-2.868 6.3438-6.375s-2.8368-6.3438-6.3438-6.3438zm40.125 0c-3.507 0-6.3438 2.8367-6.3438 6.3438 0 3.507 2.8367 6.375 6.3438 6.375 3.507 0 6.3438-2.868 6.3438-6.375s-2.8368-6.3438-6.3438-6.3438zm-40.375 14.812c-3.377-0.0013-6.6782 0.21099-9.7188 0.625-2.1625 0.82985-6.8031 10.034-6.4062 12.719 0.59161 4.0033 2.6426 3.4553 6.375-1.75 1.3126-1.8305 1.4396-1.3967 1.4688 4.7812l0.0312 6.8125h17l0.0312-6.8125c0.0291-6.178 0.15619-6.6118 1.4688-4.7812 3.7324 5.2053 5.7834 5.7533 6.375 1.75 0.39684-2.6852-4.2437-11.889-6.4062-12.719-3.3891-0.40892-6.8418-0.62373-10.219-0.625zm40.125 0c-3.377-0.0013-6.6782 0.21099-9.7188 0.625-2.1625 0.82985-6.8031 10.034-6.4062 12.719 0.59161 4.0033 2.6426 3.4553 6.375-1.75 1.3126-1.8305 1.4396-1.3967 1.4688 4.7812l0.0312 6.8125h17l0.0312-6.8125c0.0291-6.178 0.15619-6.6118 1.4688-4.7812 3.7324 5.2053 5.7834 5.7533 6.375 1.75 0.39684-2.6852-4.2437-11.889-6.4062-12.719-3.3891-0.40892-6.8418-0.62373-10.219-0.625z" style="fill:#000000" inkscape:connector-curvature="0"/>
      <path id="rect3899" d="m143.06 102.25v1.3438h7.8438v-1.3438h-7.8438zm29.844 0v1.3438h18.312v-1.3438h-18.312zm40.312 0v1.3438h7.8438v-1.3438h-7.8438z" style="stroke-width:0;fill:#000000" inkscape:connector-curvature="0" transform="translate(0,-15)"/>
    </g>
  </g>
  <metadata>
    <rdf:RDF>
      <cc:Work>
        <dc:format>image/svg+xml</dc:format>
        <dc:type rdf:resource="http://purl.org/dc/dcmitype/StillImage"/>
        <cc:license rdf:resource="http://creativecommons.org/licenses/publicdomain/"/>
        <dc:publisher>
          <cc:Agent rdf:about="http://openclipart.org/">
            <dc:title>Openclipart</dc:title>
          </cc:Agent>
        </dc:publisher>
        <dc:title>Training Icon</dc:title>
        <dc:date>2012-04-10T08:26:03</dc:date>
        <dc:description>Training Icon / Symbol</dc:description>
        <dc:source>https://openclipart.org/detail/169441/training-icon-by-forestgreen</dc:source>
        <dc:creator>
          <cc:Agent>
            <dc:title>forestgreen</dc:title>
          </cc:Agent>
        </dc:creator>
        <dc:subject>
          <rdf:Bag>
            <rdf:li>Class</rdf:li>
            <rdf:li>College</rdf:li>
            <rdf:li>Education</rdf:li>
            <rdf:li>Learning</rdf:li>
            <rdf:li>School</rdf:li>
            <rdf:li>Seminar</rdf:li>
            <rdf:li>Training</rdf:li>
            <rdf:li>University</rdf:li>
            <rdf:li>Workshop</rdf:li>
          </rdf:Bag>
        </dc:subject>
      </cc:Work>
      <cc:License rdf:about="http://creativecommons.org/licenses/publicdomain/">
        <cc:permits rdf:resource="http://creativecommons.org/ns#Reproduction"/>
        <cc:permits rdf:resource="http://creativecommons.org/ns#Distribution"/>
        <cc:permits rdf:resource="http://creativecommons.org/ns#DerivativeWorks"/>
      </cc:License>
    </rdf:RDF>
  </metadata>
</svg>