<?xml version="1.0" ?><svg enable-background="new 0 0 512 512" id="Layer_1" version="1.1" viewBox="0 0 512 512" xml:space="preserve" xmlns="http://www.w3.org/2000/svg" xmlns:xlink="http://www.w3.org/1999/xlink"><g><g><linearGradient gradientUnits="userSpaceOnUse" id="SVGID_1_" x1="0.0000038" x2="512" y1="256" y2="256"><stop offset="0" style="stop-color:#95A5A6"/><stop offset="1" style="stop-color:#7F8C8D"/></linearGradient><circle cx="256" cy="256" fill="url(#SVGID_1_)" r="256"/><linearGradient gradientUnits="userSpaceOnUse" id="SVGID_2_" x1="42.6666679" x2="469.3333435" y1="256.0005188" y2="256.0005188"><stop offset="0" style="stop-color:#7F8C8D"/><stop offset="1" style="stop-color:#95A5A6"/></linearGradient><path d="M256,469.3338623c-117.6314697,0-213.3333282-95.7023926-213.3333282-213.3333435    c0-117.6314545,95.7018585-213.333313,213.3333282-213.333313c117.6357422,0,213.3333435,95.7018661,213.3333435,213.333313    C469.3333435,373.6314697,373.6357422,469.3338623,256,469.3338623z" fill="url(#SVGID_2_)"/></g><path d="M373.990387,343.2272034h-14.2714539V228.7050629h19.764801L264,144.0101318l-115.4842682,84.694931   h19.7626648v114.5221405h-14.2687988c-5.5226593,0-9.9993744,4.4762573-9.9993744,9.9994507v30.7626953h239.9790955v-30.7626953   C383.9893188,347.7034607,379.5130615,343.2272034,373.990387,343.2272034z M349.7200012,343.2272034h-26.2890625V228.7050629   h26.2890625V343.2272034z M250.8538666,228.7050629h26.2895966v114.5221405h-26.2895966V228.7050629z M240.8549347,343.2272034   h-26.2890625V228.7050629h26.2890625V343.2272034z M287.142395,228.7050629h26.2890625v114.5221405H287.142395V228.7050629z    M264,178.4288025c8.5136108,0,15.4149475,6.8389282,15.4149475,15.273056c0,8.4341431-6.9013367,15.2720032-15.4149475,15.2720032   c-8.5141296,0-15.4154663-6.8378601-15.4154663-15.2720032C248.5845337,185.2677307,255.4858704,178.4288025,264,178.4288025z    M178.2773285,228.7050629h26.2890778v114.5221405h-26.2890778V228.7050629z" opacity="0.3"/><path d="M365.990387,335.2272034h-14.2714539V220.7050629h19.764801L256,136.0101318l-115.4842682,84.694931   h19.7626648v114.5221405h-14.2687988c-5.5226593,0-9.9993744,4.4762573-9.9993744,9.9994507v30.7626953h239.9790955v-30.7626953   C375.9893188,339.7034607,371.5130615,335.2272034,365.990387,335.2272034z M341.7200012,335.2272034h-26.2890625V220.7050629   h26.2890625V335.2272034z M242.8538666,220.7050629h26.2895966v114.5221405h-26.2895966V220.7050629z M232.8549347,335.2272034   h-26.2890625V220.7050629h26.2890625V335.2272034z M279.142395,220.7050629h26.2890625v114.5221405H279.142395V220.7050629z    M256,170.4288025c8.5136108,0,15.4149475,6.8389282,15.4149475,15.273056c0,8.4341431-6.9013367,15.2720032-15.4149475,15.2720032   c-8.5141296,0-15.4154663-6.8378601-15.4154663-15.2720032C240.5845337,177.2677307,247.4858704,170.4288025,256,170.4288025z    M170.2773285,220.7050629h26.2890778v114.5221405h-26.2890778V220.7050629z" fill="#FFFFFF"/></g></svg>